<svg width="437" height="34" viewBox="0 0 437 34" fill="none" xmlns="http://www.w3.org/2000/svg">
<path d="M227.711 15.2364C227.864 15.3898 227.864 15.5431 227.711 15.6965L215.276 32.7188C215.123 32.8722 214.969 33.0255 214.816 32.8722L214.048 32.2588C213.895 32.1054 213.895 31.9521 214.048 31.7987L226.329 14.9297C226.482 14.623 226.636 14.623 226.789 14.623L227.711 15.2364Z" fill="black"/>
<path d="M1.43859 32.1054C0.978063 32.1054 0.824554 32.1054 0.824554 31.1853C0.824554 30.5719 0.978063 30.2652 1.43859 30.2652L2.20613 30.1118C2.82017 29.9585 2.97368 29.8051 2.97368 28.5783L3.12719 21.524C3.12719 17.23 2.97368 16.77 1.5921 16.1566C0.978063 16.0032 0.824554 15.8498 0.824554 15.5431C0.824554 15.0831 1.13157 14.9297 1.89912 14.623C2.66666 14.3163 3.74122 13.8562 4.20175 13.5495C5.42982 13.0895 6.04385 12.6294 6.50438 12.6294C6.96491 12.7827 7.27192 13.0895 7.27192 14.0096V16.6166C7.88596 15.3898 8.6535 14.623 9.88157 13.8562C10.8026 13.3962 12.0307 13.0895 13.2588 13.0895C16.0219 13.0895 17.864 14.623 18.4781 16.9233H18.6316C19.2456 15.6965 20.0131 14.623 21.3947 13.8562C22.3158 13.3962 23.6974 13.0895 24.9254 13.0895C27.8421 13.0895 29.5307 14.3163 30.1447 16.77C30.4517 18.3035 30.4517 19.8371 30.4517 22.4441V28.7316C30.4517 29.8051 30.6053 30.1118 31.3728 30.1118L32.1403 30.2652C32.7544 30.2652 32.7544 30.4185 32.7544 31.1853C32.7544 31.9521 32.6009 32.1054 32.1403 32.1054C30.9123 31.9521 29.6842 31.9521 28.6096 31.9521C27.5351 31.9521 25.5395 32.1054 24.3114 32.1054C23.8509 32.1054 23.6974 31.9521 23.6974 31.1853C23.6974 30.4185 23.8509 30.2652 24.4649 30.2652L25.5395 30.1118C26.1535 30.1118 26.307 29.8051 26.307 28.7316V23.2109C26.307 20.7572 26.307 19.2236 25.8465 17.9968C25.386 16.6166 24.3114 15.8498 22.9298 15.8498C21.2412 15.8498 19.0921 17.0767 19.0921 21.3706V28.7316C19.0921 29.8051 19.2456 30.1118 20.0132 30.1118L20.4737 30.2652C21.0877 30.4185 21.0877 30.4185 21.0877 31.1853C21.0877 31.9521 20.9342 32.1054 20.4737 32.1054C19.2456 31.9521 18.0175 31.9521 16.943 31.9521C15.8684 31.9521 14.0263 32.1054 12.9517 32.1054C12.4912 32.1054 12.1842 31.9521 12.1842 31.1853C12.1842 30.4185 12.3377 30.2652 12.9517 30.2652L13.8728 30.1118C14.3333 30.1118 14.6403 29.8051 14.6403 28.7316V23.2109C14.6403 20.7572 14.6403 19.2236 14.1798 17.9968C13.5658 16.6166 12.6447 15.8498 11.2632 15.8498C9.57455 15.8498 7.42543 17.0767 7.42543 21.3706L7.57894 28.5783C7.57894 29.6518 7.57894 29.9585 8.19298 30.1118L8.80701 30.2652C9.42105 30.5719 9.42105 30.7252 9.42105 31.3387C9.42105 32.1054 9.26754 32.4121 8.80701 32.2588C7.57894 32.1054 6.9649 32.1054 5.42982 32.1054C3.89473 31.9521 2.66666 32.1054 1.43859 32.1054Z" fill="black"/>
<path d="M55.0132 28.885C55.0132 25.3578 58.5439 23.6709 64.8377 21.8307C64.8377 20.4505 64.9912 19.377 64.9912 18.7636C64.9912 15.6965 63.9167 15.3898 62.5351 15.3898C60.693 15.3898 60.2325 16.3099 59.6184 18.1501C59.3114 19.5303 58.2368 20.2971 57.1623 20.2971C56.0877 20.2971 55.3202 19.5303 55.3202 18.4569C55.3202 17.8434 55.4737 17.23 56.2412 16.4632C57.1623 15.5431 60.2324 13.3961 64.0702 13.3961C67.6009 13.3961 68.9824 14.9297 68.9824 18.6102C68.9824 20.2971 68.8289 22.7508 68.8289 25.8179C68.8289 28.4249 68.9825 29.9584 70.057 29.9584C70.671 29.9584 70.8246 29.8051 71.2851 29.345C71.4386 29.1917 71.5921 29.1917 71.7456 29.1917C72.0526 29.1917 72.3596 29.4984 72.3596 29.9584C72.3596 30.1118 72.2061 30.4185 72.2061 30.5719C71.5921 31.3386 69.9035 33.1789 68.2149 33.1789C66.8333 33.1789 65.7588 32.5655 65.1447 30.4185C63.7632 31.9521 61.614 33.1789 59.1579 33.1789C56.2412 32.7188 55.0132 31.0319 55.0132 28.885ZM61.307 29.9584C62.5351 29.9584 63.9167 28.885 64.8377 28.1182C64.6842 26.738 64.6842 25.6645 64.6842 24.8977C64.6842 24.2843 64.6842 23.8243 64.6842 23.0575C60.693 24.591 59.0044 25.3578 59.0044 27.6581C59.1579 29.4984 60.386 29.9584 61.307 29.9584Z" fill="black"/>
<path d="M96.614 32.1054C96.1535 32.1054 96 31.9521 96 31.1853C96 30.4185 96.1535 30.2652 96.7675 30.2652L97.9956 30.1118C98.7632 30.1118 98.7632 29.6518 98.7632 28.885L98.9167 21.3706C98.9167 17.3834 98.7632 17.23 97.3816 16.6166C96.7675 16.4633 96.614 16.3099 96.614 15.8498C96.614 15.3898 96.7675 15.2364 97.6886 14.9297C98.4561 14.623 99.0702 14.3163 99.6842 14.0096C100.605 13.5495 101.833 12.6294 102.447 12.6294C102.908 12.6294 103.215 12.9361 103.215 13.8562C103.215 14.4697 103.215 15.5431 103.215 16.77H103.368C105.057 13.7029 106.592 13.0895 108.281 13.0895C109.816 13.0895 111.044 13.7029 111.044 14.9297C111.044 16.1566 110.43 17.5367 109.048 17.5367C108.434 17.5367 107.974 17.3834 107.36 17.0767C107.053 16.9233 106.592 16.6166 105.825 16.6166C104.443 16.6166 103.215 18.6102 103.215 21.3706V28.885C103.215 29.8051 103.215 30.1118 104.443 30.1118L105.518 30.2652C106.132 30.2652 106.285 30.5719 106.285 31.1853C106.285 31.9521 106.132 32.1054 105.671 32.1054C104.596 31.9521 102.447 31.9521 101.373 31.9521C99.9912 31.9521 97.8421 32.1054 96.614 32.1054Z" fill="black"/>
<path d="M136.987 27.5048L137.14 16.3099H135.605C134.991 16.3099 134.531 16.1565 134.531 15.5431C134.531 15.0831 135.145 14.4696 135.912 13.7029C136.987 12.6294 137.447 12.1693 139.904 8.94887C140.211 8.64216 140.518 8.33545 140.978 8.33545C141.285 8.33545 141.592 8.4888 141.592 8.94887V13.7029C142.82 13.7029 145.43 13.5495 146.811 13.5495C147.425 13.5495 147.579 14.0096 147.272 14.623L146.658 16.0032C146.504 16.3099 146.351 16.4632 145.89 16.4632H141.285V25.3578C141.285 28.885 141.285 30.4185 143.741 30.4185C144.969 30.4185 145.737 29.6517 146.351 29.6517C146.811 29.6517 146.965 29.9585 146.965 30.4185C146.965 30.7252 146.658 31.0319 146.351 31.3386C145.583 31.9521 143.895 32.7188 141.899 32.7188C139.596 32.7188 136.833 31.492 136.987 27.5048Z" fill="black"/>
<path d="M171.066 28.885C171.066 25.3578 174.596 23.6709 180.89 21.8307C180.89 20.4505 181.044 19.377 181.044 18.7636C181.044 15.6965 179.969 15.3898 178.588 15.3898C176.746 15.3898 176.285 16.3099 175.671 18.1501C175.364 19.5303 174.289 20.2971 173.215 20.2971C172.14 20.2971 171.373 19.5303 171.373 18.4569C171.373 17.8434 171.526 17.23 172.294 16.4632C173.215 15.5431 176.285 13.3961 180.123 13.3961C183.654 13.3961 185.035 14.9297 185.035 18.6102C185.035 20.2971 184.882 22.7508 184.882 25.8179C184.882 28.4249 185.035 29.9584 186.11 29.9584C186.724 29.9584 186.877 29.8051 187.338 29.345C187.491 29.1917 187.645 29.1917 187.798 29.1917C188.105 29.1917 188.412 29.4984 188.412 29.9584C188.412 30.1118 188.259 30.4185 188.259 30.5719C187.645 31.3386 185.956 33.1789 184.268 33.1789C182.886 33.1789 181.811 32.5655 181.197 30.4185C179.816 31.9521 177.667 33.1789 175.211 33.1789C172.294 32.7188 171.066 31.0319 171.066 28.885ZM177.36 29.9584C178.588 29.9584 179.969 28.885 180.89 28.1182C180.737 26.738 180.737 25.6645 180.737 24.8977C180.737 24.2843 180.737 23.8243 180.737 23.0575C176.746 24.591 175.057 25.3578 175.057 27.6581C175.211 29.4984 176.439 29.9584 177.36 29.9584Z" fill="black"/>
<path d="M259.026 30.4185C257.952 31.7987 257.338 32.2588 256.877 32.2588C256.417 32.2588 256.11 32.1054 256.11 31.0319C256.11 28.5783 256.263 22.7508 256.263 19.6837V8.48881C256.263 5.42172 256.263 5.26836 254.882 4.65494C253.807 4.19488 253.346 4.04152 253.346 3.58146C253.346 2.96804 253.961 2.81469 254.421 2.66133C255.803 2.20127 257.031 1.89456 258.719 1.12779C259.026 0.974431 259.487 0.821075 259.794 0.821075C260.254 0.821075 260.561 0.97443 260.561 1.7412C260.561 3.27475 260.254 4.65494 260.254 14.7763C261.636 13.5495 263.478 13.0894 265.32 13.0894C270.079 13.0894 274.07 16.77 274.07 22.2907C274.07 29.345 268.697 32.7188 264.399 32.7188C262.711 32.7188 260.561 32.5655 259.026 30.4185ZM263.785 15.3898C262.097 15.3898 260.101 16.4632 260.101 17.9968V25.9712C260.101 29.1917 261.943 30.7252 264.246 30.7252C267.623 30.7252 269.465 27.8115 269.465 24.2843C269.465 17.8434 266.548 15.3898 263.785 15.3898Z" fill="black"/>
<path d="M298.325 23.0575C298.325 18.1501 301.548 13.2428 307.689 13.2428C312.601 13.2428 315.364 17.5367 315.364 20.6038C315.364 21.3706 314.904 21.6773 314.136 21.6773H302.93C302.93 27.3514 306 30.1118 308.61 30.1118C310.605 30.1118 312.14 29.1917 313.522 27.9648C314.136 27.5048 314.443 27.0447 314.904 27.0447C315.364 27.0447 315.671 27.3514 315.671 27.8115C315.671 28.4249 315.211 29.0383 314.75 29.6517C313.675 30.8786 311.526 32.8722 307.689 32.8722C301.548 32.7188 298.325 28.4249 298.325 23.0575ZM309.838 19.5303C310.452 19.5303 310.605 19.377 310.605 18.6102C310.605 17.0767 309.377 15.0831 306.921 15.0831C304.772 15.0831 303.083 16.9233 302.93 19.837L309.838 19.5303Z" fill="black"/>
<path d="M339.925 32.1054C339.465 32.1054 339.311 32.1054 339.311 31.1853C339.311 30.5719 339.618 30.2652 339.925 30.2652L340.539 30.1118C341.154 29.9585 341.307 29.8051 341.307 28.5783L341.461 21.524C341.461 17.3834 341.461 16.77 339.772 16.1566C339.311 16.0032 339.158 15.8498 339.158 15.5431C339.158 15.0831 339.618 14.9297 340.386 14.623C341.154 14.3163 342.228 13.7029 342.689 13.5495C343.917 12.9361 344.224 12.6294 344.684 12.6294C345.298 12.6294 345.452 12.9361 345.452 13.8562V16.3099C346.066 15.0831 346.987 14.3163 348.215 13.7029C349.136 13.2428 350.364 12.9361 351.592 12.9361C354.202 12.9361 356.197 14.4696 356.811 16.77C357.118 18.3035 357.272 19.6837 357.272 22.2907V28.5783C357.272 29.6518 357.425 29.9585 358.039 29.9585L358.807 30.1118C359.421 30.1118 359.575 30.2652 359.575 31.0319C359.575 31.7987 359.421 31.9521 358.807 31.9521C357.579 31.7987 356.351 31.7987 355.276 31.7987C354.202 31.7987 352.513 31.9521 351.285 31.9521C350.825 31.9521 350.518 31.7987 350.518 31.0319C350.518 30.2652 350.825 30.1118 351.285 30.1118L352.206 29.9585C352.974 29.8051 352.974 29.6518 352.974 28.5783V23.0575C352.974 20.6038 352.974 19.0703 352.513 17.8435C352.053 16.4633 350.825 15.6965 349.443 15.6965C347.754 15.6965 345.452 16.9233 345.605 21.2173L345.759 28.4249C345.759 29.4984 345.759 29.8051 346.373 29.9585L346.987 30.1118C347.601 30.2652 347.601 30.4185 347.601 31.0319C347.601 31.7987 347.447 32.1054 346.987 31.9521C345.759 31.7987 345.298 31.7987 343.61 31.7987C342.075 31.9521 341.154 32.1054 339.925 32.1054Z" fill="black"/>
<path d="M382.754 23.0575C382.754 18.1501 385.978 13.2428 392.118 13.2428C397.031 13.2428 399.794 17.5367 399.794 20.6038C399.794 21.3706 399.333 21.6773 398.566 21.6773H387.36C387.36 27.3514 390.43 30.1118 393.039 30.1118C395.035 30.1118 396.57 29.1917 397.952 27.9648C398.566 27.5048 398.873 27.0447 399.333 27.0447C399.794 27.0447 400.101 27.3514 400.101 27.8115C400.101 28.4249 399.64 29.0383 399.18 29.6517C398.105 30.8786 395.956 32.8722 392.118 32.8722C385.978 32.7188 382.754 28.4249 382.754 23.0575ZM394.421 19.5303C395.035 19.5303 395.189 19.377 395.189 18.6102C395.189 17.0767 393.961 15.0831 391.504 15.0831C389.355 15.0831 387.667 16.9233 387.513 19.837L394.421 19.5303Z" fill="black"/>
<path d="M425.737 27.5048L425.89 16.3099H424.355C423.741 16.3099 423.281 16.1565 423.281 15.5431C423.281 15.0831 423.895 14.4696 424.662 13.7029C425.737 12.6294 426.197 12.1693 428.654 8.94887C428.961 8.64216 429.268 8.33545 429.728 8.33545C430.035 8.33545 430.342 8.4888 430.342 8.94887V13.7029C431.57 13.7029 434.18 13.5495 435.561 13.5495C436.175 13.5495 436.329 14.0096 436.022 14.623L435.254 16.0032C435.101 16.3099 434.947 16.4632 434.487 16.4632H429.882V25.3578C429.882 28.885 429.882 30.4185 432.338 30.4185C433.566 30.4185 434.333 29.6517 434.947 29.6517C435.408 29.6517 435.561 29.9585 435.561 30.4185C435.561 30.7252 435.408 31.0319 434.947 31.3386C434.18 31.9521 432.491 32.7188 430.496 32.7188C428.347 32.7188 425.583 31.492 425.737 27.5048Z" fill="black"/>
</svg>
